<?xml version='1.0' encoding='utf-8'?>
<svg xmlns:xlink="http://www.w3.org/1999/xlink" xmlns="http://www.w3.org/2000/svg" version="1.1" baseProfile="full" width="600" height="600">
  <title>VFPt_cylindrical_magnet</title>
  <desc>VFPt_cylindrical_magnet
created with VectorFieldPlot 1.0
http://commons.wikimedia.org/wiki/User:Geek3/VectorFieldPlot

about: http://commons.wikimedia.org/wiki/File:VFPt_cylindrical_magnet.svg
rights: GNU Free Documentation license,
        Creative Commons Attribution ShareAlike license
  </desc>
  <defs>
    <path id="arrow1" stroke="none" fill="#000000" transform="scale(0.01)" d="M 0.3,0 L -2.2,2.25 L 3.8,0 L -2.2,-2.25 L 0.3,0 Z"/>
  </defs>
  <rect id="background" x="0" y="0" width="600" height="600" fill="#ffffff"/>
  <g id="image" transform="translate(300.0,300.0) scale(100.0,-100.0)">
    <g id="fieldlines" fill="none" stroke="#000000" stroke-width="0.02" stroke-linejoin="round" stroke-linecap="round">
      <g id="fieldline1">
        <path d="M 0.0000,-0.2333 L 0.1971,-0.2343 L 0.3400,-0.2368 L 0.4410,-0.2403 L 0.5157,-0.2447 L 0.5737,-0.2500 L 0.4710,-0.3305 L 0.4183,-0.3692 L 0.3722,-0.4000 L 0.3293,-0.4259 L 0.2882,-0.4479 L 0.2482,-0.4666 L 0.2091,-0.4822 L 0.1705,-0.4950 L 0.1323,-0.5051 L 0.0943,-0.5126 L 0.0565,-0.5176 L 0.0188,-0.5201 L -0.0189,-0.5201 L -0.0565,-0.5176 L -0.0943,-0.5126 L -0.1323,-0.5051 L -0.1705,-0.4950 L -0.2091,-0.4822 L -0.2483,-0.4666 L -0.2882,-0.4479 L -0.3293,-0.4259 L -0.3723,-0.4000 L -0.4183,-0.3691 L -0.4711,-0.3305 L -0.5737,-0.2500 L -0.5157,-0.2447 L -0.4410,-0.2403 L -0.3400,-0.2368 L -0.1970,-0.2343 L 0.0000,-0.2333 Z"/>
        <g id="arrows1">
          <use xlink:href="#arrow1" transform="translate(0.0000,-0.5193) rotate(178.55) scale(2.0)"/>
        </g>
      </g>
      <g id="fieldline2">
        <path d="M 0.0000,-0.2000 L 0.2187,-0.2011 L 0.3671,-0.2038 L 0.4675,-0.2077 L 0.5399,-0.2125 L 0.5948,-0.2183 L 0.6379,-0.2250 L 0.6722,-0.2326 L 0.6998,-0.2409 L 0.7224,-0.2500 L 0.7116,-0.2708 L 0.6956,-0.3087 L 0.6481,-0.4324 L 0.6215,-0.4952 L 0.5958,-0.5501 L 0.5698,-0.5997 L 0.5432,-0.6453 L 0.5158,-0.6875 L 0.4875,-0.7266 L 0.4583,-0.7627 L 0.4282,-0.7960 L 0.3973,-0.8265 L 0.3656,-0.8544 L 0.3331,-0.8797 L 0.2999,-0.9024 L 0.2661,-0.9226 L 0.2317,-0.9402 L 0.1969,-0.9552 L 0.1616,-0.9677 L 0.1261,-0.9777 L 0.0902,-0.9852 L 0.0542,-0.9902 L 0.0181,-0.9927 L -0.0181,-0.9927 L -0.0542,-0.9902 L -0.0903,-0.9852 L -0.1261,-0.9777 L -0.1617,-0.9677 L -0.1969,-0.9552 L -0.2317,-0.9401 L -0.2661,-0.9226 L -0.2999,-0.9024 L -0.3331,-0.8797 L -0.3656,-0.8544 L -0.3973,-0.8265 L -0.4283,-0.7959 L -0.4584,-0.7626 L -0.4875,-0.7265 L -0.5158,-0.6875 L -0.5432,-0.6453 L -0.5698,-0.5997 L -0.5958,-0.5500 L -0.6215,-0.4952 L -0.6480,-0.4324 L -0.6956,-0.3088 L -0.7116,-0.2708 L -0.7224,-0.2500 L -0.6998,-0.2409 L -0.6722,-0.2326 L -0.6378,-0.2250 L -0.5948,-0.2183 L -0.5398,-0.2125 L -0.4674,-0.2077 L -0.3670,-0.2038 L -0.2187,-0.2011 L 0.0000,-0.2000 Z"/>
        <g id="arrows2">
          <use xlink:href="#arrow1" transform="translate(0.5083,-0.6969) rotate(-126.09) scale(2.0)"/>
          <use xlink:href="#arrow1" transform="translate(-0.5083,-0.6969) rotate(124.40) scale(2.0)"/>
        </g>
      </g>
      <g id="fieldline3">
        <path d="M 0.0000,-0.1667 L 0.2353,-0.1678 L 0.3865,-0.1705 L 0.4855,-0.1744 L 0.5559,-0.1793 L 0.6088,-0.1852 L 0.6500,-0.1920 L 0.6826,-0.1997 L 0.7084,-0.2081 L 0.7284,-0.2170 L 0.7434,-0.2261 L 0.7539,-0.2351 L 0.7610,-0.2442 L 0.7667,-0.2562 L 0.7730,-0.2769 L 0.7803,-0.3126 L 0.7879,-0.3643 L 0.7943,-0.4267 L 0.7985,-0.4926 L 0.8002,-0.5588 L 0.7993,-0.6238 L 0.7960,-0.6872 L 0.7902,-0.7489 L 0.7821,-0.8088 L 0.7717,-0.8668 L 0.7591,-0.9231 L 0.7443,-0.9774 L 0.7275,-1.0299 L 0.7086,-1.0804 L 0.6878,-1.1290 L 0.6651,-1.1755 L 0.6407,-1.2200 L 0.6145,-1.2624 L 0.5867,-1.3025 L 0.5574,-1.3405 L 0.5267,-1.3762 L 0.4946,-1.4096 L 0.4613,-1.4406 L 0.4268,-1.4693 L 0.3913,-1.4956 L 0.3549,-1.5194 L 0.3176,-1.5408 L 0.2795,-1.5597 L 0.2408,-1.5761 L 0.2015,-1.5900 L 0.1618,-1.6014 L 0.1216,-1.6103 L 0.0813,-1.6166 L 0.0407,-1.6204 L 0.0000,-1.6217 L -0.0407,-1.6204 L -0.0813,-1.6166 L -0.1217,-1.6103 L -0.1618,-1.6014 L -0.2015,-1.5900 L -0.2408,-1.5761 L -0.2795,-1.5597 L -0.3176,-1.5408 L -0.3549,-1.5194 L -0.3914,-1.4955 L -0.4269,-1.4693 L -0.4613,-1.4406 L -0.4946,-1.4095 L -0.5267,-1.3761 L -0.5574,-1.3405 L -0.5867,-1.3025 L -0.6145,-1.2623 L -0.6407,-1.2200 L -0.6651,-1.1755 L -0.6878,-1.1290 L -0.7086,-1.0804 L -0.7275,-1.0299 L -0.7444,-0.9774 L -0.7591,-0.9230 L -0.7717,-0.8668 L -0.7821,-0.8087 L -0.7902,-0.7488 L -0.7960,-0.6872 L -0.7993,-0.6237 L -0.8002,-0.5587 L -0.7985,-0.4926 L -0.7943,-0.4266 L -0.7879,-0.3643 L -0.7803,-0.3125 L -0.7730,-0.2769 L -0.7667,-0.2562 L -0.7610,-0.2442 L -0.7539,-0.2350 L -0.7434,-0.2261 L -0.7284,-0.2170 L -0.7083,-0.2081 L -0.6825,-0.1997 L -0.6499,-0.1920 L -0.6087,-0.1852 L -0.5558,-0.1793 L -0.4854,-0.1744 L -0.3863,-0.1705 L -0.2352,-0.1678 L 0.0000,-0.1667 Z"/>
        <g id="arrows3">
          <use xlink:href="#arrow1" transform="translate(0.7894,-0.7509) rotate(-97.06) scale(2.0)"/>
          <use xlink:href="#arrow1" transform="translate(0.0000,-1.6206) rotate(178.87) scale(2.0)"/>
          <use xlink:href="#arrow1" transform="translate(-0.7894,-0.7509) rotate(96.14) scale(2.0)"/>
        </g>
      </g>
      <g id="fieldline4">
        <path d="M 0.0000,-0.1333 L 0.2537,-0.1345 L 0.4074,-0.1371 L 0.5054,-0.1409 L 0.5744,-0.1457 L 0.6262,-0.1515 L 0.6670,-0.1584 L 0.7001,-0.1663 L 0.7276,-0.1753 L 0.7507,-0.1854 L 0.7708,-0.1968 L 0.7890,-0.2101 L 0.8065,-0.2262 L 0.8247,-0.2466 L 0.8447,-0.2733 L 0.8673,-0.3083 L 0.8927,-0.3527 L 0.9204,-0.4066 L 0.9489,-0.4679 L 0.9768,-0.5342 L 1.0031,-0.6034 L 1.0273,-0.6742 L 1.0491,-0.7458 L 1.0683,-0.8177 L 1.0849,-0.8898 L 1.0988,-0.9617 L 1.1101,-1.0333 L 1.1188,-1.1045 L 1.1248,-1.1752 L 1.1282,-1.2453 L 1.1291,-1.3147 L 1.1274,-1.3833 L 1.1231,-1.4510 L 1.1164,-1.5178 L 1.1073,-1.5834 L 1.0957,-1.6479 L 1.0818,-1.7110 L 1.0655,-1.7729 L 1.0471,-1.8333 L 1.0264,-1.8921 L 1.0036,-1.9493 L 0.9788,-2.0048 L 0.9520,-2.0586 L 0.9232,-2.1104 L 0.8927,-2.1604 L 0.8603,-2.2084 L 0.8263,-2.2543 L 0.7907,-2.2980 L 0.7536,-2.3397 L 0.7150,-2.3791 L 0.6751,-2.4162 L 0.6340,-2.4510 L 0.5917,-2.4835 L 0.5483,-2.5136 L 0.5039,-2.5413 L 0.4586,-2.5665 L 0.4125,-2.5893 L 0.3657,-2.6096 L 0.3182,-2.6274 L 0.2702,-2.6427 L 0.2217,-2.6555 L 0.1729,-2.6657 L 0.1237,-2.6733 L 0.0743,-2.6785 L 0.0248,-2.6810 L -0.0247,-2.6810 L -0.0742,-2.6785 L -0.1236,-2.6734 L -0.1727,-2.6657 L -0.2216,-2.6555 L -0.2701,-2.6427 L -0.3181,-2.6275 L -0.3655,-2.6097 L -0.4124,-2.5894 L -0.4585,-2.5666 L -0.5038,-2.5414 L -0.5481,-2.5137 L -0.5915,-2.4836 L -0.6338,-2.4511 L -0.6750,-2.4163 L -0.7149,-2.3792 L -0.7535,-2.3398 L -0.7906,-2.2982 L -0.8262,-2.2544 L -0.8602,-2.2085 L -0.8926,-2.1605 L -0.9232,-2.1106 L -0.9519,-2.0587 L -0.9787,-2.0050 L -1.0036,-1.9495 L -1.0264,-1.8923 L -1.0470,-1.8334 L -1.0655,-1.7731 L -1.0817,-1.7112 L -1.0957,-1.6480 L -1.1072,-1.5836 L -1.1164,-1.5179 L -1.1231,-1.4512 L -1.1273,-1.3835 L -1.1291,-1.3149 L -1.1282,-1.2455 L -1.1248,-1.1754 L -1.1188,-1.1047 L -1.1101,-1.0335 L -1.0988,-0.9619 L -1.0849,-0.8900 L -1.0683,-0.8180 L -1.0491,-0.7460 L -1.0274,-0.6744 L -1.0032,-0.6036 L -0.9769,-0.5344 L -0.9490,-0.4681 L -0.9205,-0.4067 L -0.8928,-0.3528 L -0.8673,-0.3084 L -0.8447,-0.2734 L -0.8247,-0.2467 L -0.8066,-0.2263 L -0.7890,-0.2101 L -0.7708,-0.1968 L -0.7508,-0.1854 L -0.7276,-0.1753 L -0.7001,-0.1663 L -0.6670,-0.1584 L -0.6263,-0.1515 L -0.5744,-0.1457 L -0.5055,-0.1409 L -0.4075,-0.1371 L -0.2537,-0.1345 L 0.0000,-0.1333 Z"/>
        <g id="arrows4">
          <use xlink:href="#arrow1" transform="translate(1.0230,-0.6626) rotate(-72.16) scale(2.0)"/>
          <use xlink:href="#arrow1" transform="translate(1.0026,-1.9502) rotate(-113.41) scale(2.0)"/>
          <use xlink:href="#arrow1" transform="translate(0.0000,-2.6806) rotate(178.98) scale(2.0)"/>
          <use xlink:href="#arrow1" transform="translate(-1.0026,-1.9502) rotate(112.49) scale(2.0)"/>
          <use xlink:href="#arrow1" transform="translate(-1.0231,-0.6625) rotate(71.40) scale(2.0)"/>
        </g>
      </g>
      <g id="fieldline5">
        <path d="M -1.8998,-3.0100 L -1.9112,-2.9265 L -1.9201,-2.8421 L -1.9265,-2.7569 L -1.9305,-2.6710 L -1.9319,-2.5845 L -1.9308,-2.4974 L -1.9272,-2.4098 L -1.9210,-2.3219 L -1.9123,-2.2338 L -1.9009,-2.1454 L -1.8870,-2.0570 L -1.8706,-1.9686 L -1.8515,-1.8803 L -1.8300,-1.7921 L -1.8058,-1.7043 L -1.7792,-1.6169 L -1.7500,-1.5299 L -1.7184,-1.4435 L -1.6843,-1.3577 L -1.6477,-1.2727 L -1.6088,-1.1885 L -1.5675,-1.1052 L -1.5238,-1.0229 L -1.4779,-0.9418 L -1.4298,-0.8620 L -1.3796,-0.7836 L -1.3275,-0.7068 L -1.2736,-0.6319 L -1.2184,-0.5595 L -1.1625,-0.4903 L -1.1068,-0.4254 L -1.0530,-0.3663 L -1.0026,-0.3145 L -0.9570,-0.2711 L -0.9169,-0.2361 L -0.8816,-0.2084 L -0.8498,-0.1863 L -0.8202,-0.1687 L -0.7913,-0.1545 L -0.7618,-0.1427 L -0.7300,-0.1328 L -0.6942,-0.1245 L -0.6522,-0.1176 L -0.6004,-0.1118 L -0.5324,-0.1072 L -0.4354,-0.1036 L -0.2780,-0.1011 L 0.0000,-0.1000 L 0.2787,-0.1011 L 0.4354,-0.1036 L 0.5325,-0.1072 L 0.6005,-0.1118 L 0.6524,-0.1176 L 0.6943,-0.1245 L 0.7302,-0.1329 L 0.7619,-0.1428 L 0.7915,-0.1545 L 0.8203,-0.1688 L 0.8499,-0.1864 L 0.8818,-0.2085 L 0.9171,-0.2363 L 0.9571,-0.2712 L 1.0027,-0.3147 L 1.0531,-0.3665 L 1.1070,-0.4256 L 1.1627,-0.4905 L 1.2186,-0.5598 L 1.2738,-0.6322 L 1.3277,-0.7070 L 1.3798,-0.7838 L 1.4300,-0.8622 L 1.4781,-0.9421 L 1.5239,-1.0232 L 1.5676,-1.1054 L 1.6089,-1.1887 L 1.6478,-1.2729 L 1.6843,-1.3579 L 1.7184,-1.4436 L 1.7501,-1.5300 L 1.7792,-1.6170 L 1.8059,-1.7045 L 1.8300,-1.7923 L 1.8516,-1.8804 L 1.8706,-1.9687 L 1.8871,-2.0571 L 1.9009,-2.1455 L 1.9123,-2.2339 L 1.9210,-2.3220 L 1.9272,-2.4099 L 1.9309,-2.4975 L 1.9319,-2.5845 L 1.9305,-2.6711 L 1.9265,-2.7570 L 1.9201,-2.8422 L 1.9112,-2.9265 L 1.8998,-3.0100"/>
        <g id="arrows5">
          <use xlink:href="#arrow1" transform="translate(-1.9224,-2.3445) rotate(85.35) scale(2.0)"/>
          <use xlink:href="#arrow1" transform="translate(-1.5501,-1.0725) rotate(62.05) scale(2.0)"/>
          <use xlink:href="#arrow1" transform="translate(-0.6665,-0.1205) rotate(7.90) scale(2.0)"/>
          <use xlink:href="#arrow1" transform="translate(0.6664,-0.1206) rotate(-10.19) scale(2.0)"/>
          <use xlink:href="#arrow1" transform="translate(1.5500,-1.0726) rotate(-62.32) scale(2.0)"/>
          <use xlink:href="#arrow1" transform="translate(1.9226,-2.3445) rotate(-85.97) scale(2.0)"/>
        </g>
      </g>
      <g id="fieldline6">
        <path d="M -3.0100,-2.0232 L -2.9334,-1.9172 L -2.8549,-1.8129 L -2.7747,-1.7104 L -2.6928,-1.6098 L -2.6093,-1.5110 L -2.5241,-1.4143 L -2.4375,-1.3196 L -2.3494,-1.2270 L -2.2598,-1.1365 L -2.1690,-1.0483 L -2.0769,-0.9623 L -1.9837,-0.8786 L -1.8894,-0.7973 L -1.7942,-0.7185 L -1.6983,-0.6422 L -1.6019,-0.5688 L -1.5054,-0.4985 L -1.4096,-0.4317 L -1.3157,-0.3691 L -1.2253,-0.3119 L -1.1410,-0.2613 L -1.0651,-0.2184 L -0.9991,-0.1839 L -0.9423,-0.1566 L -0.8925,-0.1353 L -0.8477,-0.1187 L -0.8057,-0.1057 L -0.7641,-0.0954 L -0.7203,-0.0872 L -0.6708,-0.0806 L -0.6111,-0.0755 L -0.5316,-0.0716 L -0.4102,-0.0687 L -0.1869,-0.0670 L 0.1869,-0.0670 L 0.4102,-0.0687 L 0.5316,-0.0716 L 0.6111,-0.0755 L 0.6708,-0.0806 L 0.7203,-0.0872 L 0.7641,-0.0954 L 0.8057,-0.1057 L 0.8477,-0.1187 L 0.8925,-0.1353 L 0.9423,-0.1566 L 0.9991,-0.1839 L 1.0651,-0.2184 L 1.1410,-0.2613 L 1.2253,-0.3119 L 1.3157,-0.3691 L 1.4096,-0.4317 L 1.5054,-0.4985 L 1.6019,-0.5688 L 1.6983,-0.6422 L 1.7942,-0.7185 L 1.8894,-0.7973 L 1.9837,-0.8786 L 2.0769,-0.9623 L 2.1690,-1.0483 L 2.2598,-1.1365 L 2.3494,-1.2270 L 2.4375,-1.3196 L 2.5241,-1.4143 L 2.6093,-1.5110 L 2.6928,-1.6098 L 2.7747,-1.7104 L 2.8549,-1.8129 L 2.9334,-1.9172 L 3.0100,-2.0232"/>
        <g id="arrows6">
          <use xlink:href="#arrow1" transform="translate(-2.6239,-1.5286) rotate(49.34) scale(2.0)"/>
          <use xlink:href="#arrow1" transform="translate(-1.7204,-0.6600) rotate(38.11) scale(2.0)"/>
          <use xlink:href="#arrow1" transform="translate(-0.6274,-0.0773) rotate(3.95) scale(2.0)"/>
          <use xlink:href="#arrow1" transform="translate(0.6275,-0.0771) rotate(-4.97) scale(2.0)"/>
          <use xlink:href="#arrow1" transform="translate(1.7205,-0.6599) rotate(-38.46) scale(2.0)"/>
          <use xlink:href="#arrow1" transform="translate(2.6240,-1.5285) rotate(-49.76) scale(2.0)"/>
        </g>
      </g>
      <g id="fieldline7">
        <path d="M -3.0100,-0.7827 L -2.8296,-0.7055 L -2.6503,-0.6315 L -2.4725,-0.5607 L -2.2962,-0.4932 L -2.1216,-0.4290 L -1.9491,-0.3682 L -1.7793,-0.3109 L -1.6134,-0.2575 L -1.4536,-0.2086 L -1.3039,-0.1653 L -1.1703,-0.1291 L -1.0584,-0.1011 L -0.9669,-0.0804 L -0.8911,-0.0656 L -0.8244,-0.0550 L -0.7610,-0.0473 L -0.6936,-0.0418 L -0.6119,-0.0379 L -0.4920,-0.0352 L -0.2534,-0.0336 L 0.2534,-0.0336 L 0.4920,-0.0352 L 0.6119,-0.0379 L 0.6936,-0.0418 L 0.7610,-0.0473 L 0.8244,-0.0550 L 0.8911,-0.0656 L 0.9669,-0.0804 L 1.0584,-0.1011 L 1.1703,-0.1291 L 1.3039,-0.1653 L 1.4536,-0.2086 L 1.6134,-0.2575 L 1.7793,-0.3109 L 1.9491,-0.3682 L 2.1216,-0.4290 L 2.2962,-0.4932 L 2.4725,-0.5607 L 2.6503,-0.6315 L 2.8296,-0.7055 L 3.0100,-0.7827"/>
        <g id="arrows7">
          <use xlink:href="#arrow1" transform="translate(-2.4304,-0.5446) rotate(20.95) scale(2.0)"/>
          <use xlink:href="#arrow1" transform="translate(-1.2419,-0.1485) rotate(15.17) scale(2.0)"/>
          <use xlink:href="#arrow1" transform="translate(0.0000,-0.0336) rotate(0.00) scale(2.0)"/>
          <use xlink:href="#arrow1" transform="translate(1.2419,-0.1485) rotate(-15.17) scale(2.0)"/>
          <use xlink:href="#arrow1" transform="translate(2.4304,-0.5446) rotate(-21.00) scale(2.0)"/>
        </g>
      </g>
      <g id="fieldline8">
        <path d="M -3.0100,0.0000 L 3.0100,0.0000"/>
        <g id="arrows8">
          <use xlink:href="#arrow1" transform="translate(-2.4080,0.0000) rotate(0.00) scale(2.0)"/>
          <use xlink:href="#arrow1" transform="translate(-1.2040,0.0000) rotate(0.00) scale(2.0)"/>
          <use xlink:href="#arrow1" transform="translate(0.0000,0.0000) rotate(0.00) scale(2.0)"/>
          <use xlink:href="#arrow1" transform="translate(1.2040,0.0000) rotate(0.00) scale(2.0)"/>
          <use xlink:href="#arrow1" transform="translate(2.4080,0.0000) rotate(0.00) scale(2.0)"/>
        </g>
      </g>
      <g id="fieldline9">
        <path d="M -3.0100,0.7827 L -2.8296,0.7055 L -2.6503,0.6315 L -2.4725,0.5607 L -2.2962,0.4932 L -2.1216,0.4290 L -1.9491,0.3682 L -1.7793,0.3109 L -1.6134,0.2575 L -1.4536,0.2086 L -1.3039,0.1653 L -1.1703,0.1291 L -1.0584,0.1011 L -0.9669,0.0804 L -0.8911,0.0656 L -0.8244,0.0550 L -0.7610,0.0473 L -0.6936,0.0418 L -0.6119,0.0379 L -0.4920,0.0352 L -0.2534,0.0336 L 0.2534,0.0336 L 0.4920,0.0352 L 0.6119,0.0379 L 0.6936,0.0418 L 0.7610,0.0473 L 0.8244,0.0550 L 0.8911,0.0656 L 0.9669,0.0804 L 1.0584,0.1011 L 1.1703,0.1291 L 1.3039,0.1653 L 1.4536,0.2086 L 1.6134,0.2575 L 1.7793,0.3109 L 1.9491,0.3682 L 2.1216,0.4290 L 2.2962,0.4932 L 2.4725,0.5607 L 2.6503,0.6315 L 2.8296,0.7055 L 3.0100,0.7827"/>
        <g id="arrows9">
          <use xlink:href="#arrow1" transform="translate(-2.4304,0.5446) rotate(-20.95) scale(2.0)"/>
          <use xlink:href="#arrow1" transform="translate(-1.2419,0.1485) rotate(-15.17) scale(2.0)"/>
          <use xlink:href="#arrow1" transform="translate(-0.0000,0.0336) rotate(-0.00) scale(2.0)"/>
          <use xlink:href="#arrow1" transform="translate(1.2419,0.1485) rotate(15.17) scale(2.0)"/>
          <use xlink:href="#arrow1" transform="translate(2.4304,0.5446) rotate(21.00) scale(2.0)"/>
        </g>
      </g>
      <g id="fieldline10">
        <path d="M -3.0100,2.0232 L -2.9334,1.9172 L -2.8549,1.8129 L -2.7747,1.7104 L -2.6928,1.6098 L -2.6093,1.5110 L -2.5241,1.4143 L -2.4375,1.3196 L -2.3494,1.2270 L -2.2598,1.1365 L -2.1690,1.0483 L -2.0769,0.9623 L -1.9837,0.8786 L -1.8894,0.7973 L -1.7942,0.7185 L -1.6983,0.6422 L -1.6019,0.5688 L -1.5054,0.4985 L -1.4096,0.4317 L -1.3157,0.3691 L -1.2253,0.3119 L -1.1410,0.2613 L -1.0651,0.2184 L -0.9991,0.1839 L -0.9423,0.1566 L -0.8925,0.1353 L -0.8477,0.1187 L -0.8057,0.1057 L -0.7641,0.0954 L -0.7203,0.0872 L -0.6708,0.0806 L -0.6111,0.0755 L -0.5316,0.0716 L -0.4102,0.0687 L -0.1869,0.0670 L 0.1869,0.0670 L 0.4102,0.0687 L 0.5316,0.0716 L 0.6111,0.0755 L 0.6708,0.0806 L 0.7203,0.0872 L 0.7641,0.0954 L 0.8057,0.1057 L 0.8477,0.1187 L 0.8925,0.1353 L 0.9423,0.1566 L 0.9991,0.1839 L 1.0651,0.2184 L 1.1410,0.2613 L 1.2253,0.3119 L 1.3157,0.3691 L 1.4096,0.4317 L 1.5054,0.4985 L 1.6019,0.5688 L 1.6983,0.6422 L 1.7942,0.7185 L 1.8894,0.7973 L 1.9837,0.8786 L 2.0769,0.9623 L 2.1690,1.0483 L 2.2598,1.1365 L 2.3494,1.2270 L 2.4375,1.3196 L 2.5241,1.4143 L 2.6093,1.5110 L 2.6928,1.6098 L 2.7747,1.7104 L 2.8549,1.8129 L 2.9334,1.9172 L 3.0100,2.0232"/>
        <g id="arrows10">
          <use xlink:href="#arrow1" transform="translate(-2.6239,1.5286) rotate(-49.34) scale(2.0)"/>
          <use xlink:href="#arrow1" transform="translate(-1.7204,0.6600) rotate(-38.11) scale(2.0)"/>
          <use xlink:href="#arrow1" transform="translate(-0.6274,0.0773) rotate(-3.95) scale(2.0)"/>
          <use xlink:href="#arrow1" transform="translate(0.6275,0.0771) rotate(4.97) scale(2.0)"/>
          <use xlink:href="#arrow1" transform="translate(1.7205,0.6599) rotate(38.46) scale(2.0)"/>
          <use xlink:href="#arrow1" transform="translate(2.6240,1.5285) rotate(49.76) scale(2.0)"/>
        </g>
      </g>
      <g id="fieldline11">
        <path d="M -1.8998,3.0100 L -1.9112,2.9265 L -1.9201,2.8421 L -1.9265,2.7569 L -1.9305,2.6710 L -1.9319,2.5845 L -1.9308,2.4974 L -1.9272,2.4098 L -1.9210,2.3219 L -1.9123,2.2338 L -1.9009,2.1454 L -1.8870,2.0570 L -1.8706,1.9686 L -1.8515,1.8803 L -1.8300,1.7921 L -1.8058,1.7043 L -1.7792,1.6169 L -1.7500,1.5299 L -1.7184,1.4435 L -1.6843,1.3577 L -1.6477,1.2727 L -1.6088,1.1885 L -1.5675,1.1052 L -1.5238,1.0229 L -1.4779,0.9418 L -1.4298,0.8620 L -1.3796,0.7836 L -1.3275,0.7068 L -1.2736,0.6319 L -1.2184,0.5595 L -1.1625,0.4903 L -1.1068,0.4254 L -1.0530,0.3663 L -1.0026,0.3145 L -0.9570,0.2711 L -0.9169,0.2361 L -0.8816,0.2084 L -0.8498,0.1863 L -0.8202,0.1687 L -0.7913,0.1545 L -0.7618,0.1427 L -0.7300,0.1328 L -0.6942,0.1245 L -0.6522,0.1176 L -0.6004,0.1118 L -0.5324,0.1072 L -0.4354,0.1036 L -0.2780,0.1011 L 0.0000,0.1000 L 0.2787,0.1011 L 0.4354,0.1036 L 0.5325,0.1072 L 0.6005,0.1118 L 0.6524,0.1176 L 0.6943,0.1245 L 0.7302,0.1329 L 0.7619,0.1428 L 0.7915,0.1545 L 0.8203,0.1688 L 0.8499,0.1864 L 0.8818,0.2085 L 0.9171,0.2363 L 0.9571,0.2712 L 1.0027,0.3147 L 1.0531,0.3665 L 1.1070,0.4256 L 1.1627,0.4905 L 1.2186,0.5598 L 1.2738,0.6322 L 1.3277,0.7070 L 1.3798,0.7838 L 1.4300,0.8622 L 1.4781,0.9421 L 1.5239,1.0232 L 1.5676,1.1054 L 1.6089,1.1887 L 1.6478,1.2729 L 1.6843,1.3579 L 1.7184,1.4436 L 1.7501,1.5300 L 1.7792,1.6170 L 1.8059,1.7045 L 1.8300,1.7923 L 1.8516,1.8804 L 1.8706,1.9687 L 1.8871,2.0571 L 1.9009,2.1455 L 1.9123,2.2339 L 1.9210,2.3220 L 1.9272,2.4099 L 1.9309,2.4975 L 1.9319,2.5845 L 1.9305,2.6711 L 1.9265,2.7570 L 1.9201,2.8422 L 1.9112,2.9265 L 1.8998,3.0100"/>
        <g id="arrows11">
          <use xlink:href="#arrow1" transform="translate(-1.9224,2.3445) rotate(-85.35) scale(2.0)"/>
          <use xlink:href="#arrow1" transform="translate(-1.5501,1.0725) rotate(-62.05) scale(2.0)"/>
          <use xlink:href="#arrow1" transform="translate(-0.6665,0.1205) rotate(-7.90) scale(2.0)"/>
          <use xlink:href="#arrow1" transform="translate(0.6664,0.1206) rotate(10.19) scale(2.0)"/>
          <use xlink:href="#arrow1" transform="translate(1.5500,1.0726) rotate(62.32) scale(2.0)"/>
          <use xlink:href="#arrow1" transform="translate(1.9226,2.3445) rotate(85.97) scale(2.0)"/>
        </g>
      </g>
      <g id="fieldline12">
        <path d="M 0.0000,0.1333 L 0.2537,0.1345 L 0.4074,0.1371 L 0.5054,0.1409 L 0.5744,0.1457 L 0.6262,0.1515 L 0.6670,0.1584 L 0.7001,0.1663 L 0.7276,0.1753 L 0.7507,0.1854 L 0.7708,0.1968 L 0.7890,0.2101 L 0.8065,0.2262 L 0.8247,0.2466 L 0.8447,0.2733 L 0.8673,0.3083 L 0.8927,0.3527 L 0.9204,0.4066 L 0.9489,0.4679 L 0.9768,0.5342 L 1.0031,0.6034 L 1.0273,0.6742 L 1.0491,0.7458 L 1.0683,0.8177 L 1.0849,0.8898 L 1.0988,0.9617 L 1.1101,1.0333 L 1.1188,1.1045 L 1.1248,1.1752 L 1.1282,1.2453 L 1.1291,1.3147 L 1.1274,1.3833 L 1.1231,1.4510 L 1.1164,1.5178 L 1.1073,1.5834 L 1.0957,1.6479 L 1.0818,1.7110 L 1.0655,1.7729 L 1.0471,1.8333 L 1.0264,1.8921 L 1.0036,1.9493 L 0.9788,2.0048 L 0.9520,2.0586 L 0.9232,2.1104 L 0.8927,2.1604 L 0.8603,2.2084 L 0.8263,2.2543 L 0.7907,2.2980 L 0.7536,2.3397 L 0.7150,2.3791 L 0.6751,2.4162 L 0.6340,2.4510 L 0.5917,2.4835 L 0.5483,2.5136 L 0.5039,2.5413 L 0.4586,2.5665 L 0.4125,2.5893 L 0.3657,2.6096 L 0.3182,2.6274 L 0.2702,2.6427 L 0.2217,2.6555 L 0.1729,2.6657 L 0.1237,2.6733 L 0.0743,2.6785 L 0.0248,2.6810 L -0.0247,2.6810 L -0.0742,2.6785 L -0.1236,2.6734 L -0.1727,2.6657 L -0.2216,2.6555 L -0.2701,2.6427 L -0.3181,2.6275 L -0.3655,2.6097 L -0.4124,2.5894 L -0.4585,2.5666 L -0.5038,2.5414 L -0.5481,2.5137 L -0.5915,2.4836 L -0.6338,2.4511 L -0.6750,2.4163 L -0.7149,2.3792 L -0.7535,2.3398 L -0.7906,2.2982 L -0.8262,2.2544 L -0.8602,2.2085 L -0.8926,2.1605 L -0.9232,2.1106 L -0.9519,2.0587 L -0.9787,2.0050 L -1.0036,1.9495 L -1.0264,1.8923 L -1.0470,1.8334 L -1.0655,1.7731 L -1.0817,1.7112 L -1.0957,1.6480 L -1.1072,1.5836 L -1.1164,1.5179 L -1.1231,1.4512 L -1.1273,1.3835 L -1.1291,1.3149 L -1.1282,1.2455 L -1.1248,1.1754 L -1.1188,1.1047 L -1.1101,1.0335 L -1.0988,0.9619 L -1.0849,0.8900 L -1.0683,0.8180 L -1.0491,0.7460 L -1.0274,0.6744 L -1.0032,0.6036 L -0.9769,0.5344 L -0.9490,0.4681 L -0.9205,0.4067 L -0.8928,0.3528 L -0.8673,0.3084 L -0.8447,0.2734 L -0.8247,0.2467 L -0.8066,0.2263 L -0.7890,0.2101 L -0.7708,0.1968 L -0.7508,0.1854 L -0.7276,0.1753 L -0.7001,0.1663 L -0.6670,0.1584 L -0.6263,0.1515 L -0.5744,0.1457 L -0.5055,0.1409 L -0.4075,0.1371 L -0.2537,0.1345 L 0.0000,0.1333 Z"/>
        <g id="arrows12">
          <use xlink:href="#arrow1" transform="translate(1.0230,0.6626) rotate(72.16) scale(2.0)"/>
          <use xlink:href="#arrow1" transform="translate(1.0026,1.9502) rotate(113.41) scale(2.0)"/>
          <use xlink:href="#arrow1" transform="translate(0.0000,2.6806) rotate(-178.98) scale(2.0)"/>
          <use xlink:href="#arrow1" transform="translate(-1.0026,1.9502) rotate(-112.49) scale(2.0)"/>
          <use xlink:href="#arrow1" transform="translate(-1.0231,0.6625) rotate(-71.40) scale(2.0)"/>
        </g>
      </g>
      <g id="fieldline13">
        <path d="M 0.0000,0.1667 L 0.2353,0.1678 L 0.3865,0.1705 L 0.4855,0.1744 L 0.5559,0.1793 L 0.6088,0.1852 L 0.6500,0.1920 L 0.6826,0.1997 L 0.7084,0.2081 L 0.7284,0.2170 L 0.7434,0.2261 L 0.7539,0.2351 L 0.7610,0.2442 L 0.7667,0.2562 L 0.7730,0.2769 L 0.7803,0.3126 L 0.7879,0.3643 L 0.7943,0.4267 L 0.7985,0.4926 L 0.8002,0.5588 L 0.7993,0.6238 L 0.7960,0.6872 L 0.7902,0.7489 L 0.7821,0.8088 L 0.7717,0.8668 L 0.7591,0.9231 L 0.7443,0.9774 L 0.7275,1.0299 L 0.7086,1.0804 L 0.6878,1.1290 L 0.6651,1.1755 L 0.6407,1.2200 L 0.6145,1.2624 L 0.5867,1.3025 L 0.5574,1.3405 L 0.5267,1.3762 L 0.4946,1.4096 L 0.4613,1.4406 L 0.4268,1.4693 L 0.3913,1.4956 L 0.3549,1.5194 L 0.3176,1.5408 L 0.2795,1.5597 L 0.2408,1.5761 L 0.2015,1.5900 L 0.1618,1.6014 L 0.1216,1.6103 L 0.0813,1.6166 L 0.0407,1.6204 L 0.0000,1.6217 L -0.0407,1.6204 L -0.0813,1.6166 L -0.1217,1.6103 L -0.1618,1.6014 L -0.2015,1.5900 L -0.2408,1.5761 L -0.2795,1.5597 L -0.3176,1.5408 L -0.3549,1.5194 L -0.3914,1.4955 L -0.4269,1.4693 L -0.4613,1.4406 L -0.4946,1.4095 L -0.5267,1.3761 L -0.5574,1.3405 L -0.5867,1.3025 L -0.6145,1.2623 L -0.6407,1.2200 L -0.6651,1.1755 L -0.6878,1.1290 L -0.7086,1.0804 L -0.7275,1.0299 L -0.7444,0.9774 L -0.7591,0.9230 L -0.7717,0.8668 L -0.7821,0.8087 L -0.7902,0.7488 L -0.7960,0.6872 L -0.7993,0.6237 L -0.8002,0.5587 L -0.7985,0.4926 L -0.7943,0.4266 L -0.7879,0.3643 L -0.7803,0.3125 L -0.7730,0.2769 L -0.7667,0.2562 L -0.7610,0.2442 L -0.7539,0.2350 L -0.7434,0.2261 L -0.7284,0.2170 L -0.7083,0.2081 L -0.6825,0.1997 L -0.6499,0.1920 L -0.6087,0.1852 L -0.5558,0.1793 L -0.4854,0.1744 L -0.3863,0.1705 L -0.2352,0.1678 L 0.0000,0.1667 Z"/>
        <g id="arrows13">
          <use xlink:href="#arrow1" transform="translate(0.7894,0.7509) rotate(97.06) scale(2.0)"/>
          <use xlink:href="#arrow1" transform="translate(0.0000,1.6206) rotate(-178.87) scale(2.0)"/>
          <use xlink:href="#arrow1" transform="translate(-0.7894,0.7509) rotate(-96.14) scale(2.0)"/>
        </g>
      </g>
      <g id="fieldline14">
        <path d="M 0.0000,0.2000 L 0.2187,0.2011 L 0.3671,0.2038 L 0.4675,0.2077 L 0.5399,0.2125 L 0.5948,0.2183 L 0.6379,0.2250 L 0.6722,0.2326 L 0.6998,0.2409 L 0.7224,0.2500 L 0.7116,0.2708 L 0.6956,0.3087 L 0.6481,0.4324 L 0.6215,0.4952 L 0.5958,0.5501 L 0.5698,0.5997 L 0.5432,0.6453 L 0.5158,0.6875 L 0.4875,0.7266 L 0.4583,0.7627 L 0.4282,0.7960 L 0.3973,0.8265 L 0.3656,0.8544 L 0.3331,0.8797 L 0.2999,0.9024 L 0.2661,0.9226 L 0.2317,0.9402 L 0.1969,0.9552 L 0.1616,0.9677 L 0.1261,0.9777 L 0.0902,0.9852 L 0.0542,0.9902 L 0.0181,0.9927 L -0.0181,0.9927 L -0.0542,0.9902 L -0.0903,0.9852 L -0.1261,0.9777 L -0.1617,0.9677 L -0.1969,0.9552 L -0.2317,0.9401 L -0.2661,0.9226 L -0.2999,0.9024 L -0.3331,0.8797 L -0.3656,0.8544 L -0.3973,0.8265 L -0.4283,0.7959 L -0.4584,0.7626 L -0.4875,0.7265 L -0.5158,0.6875 L -0.5432,0.6453 L -0.5698,0.5997 L -0.5958,0.5500 L -0.6215,0.4952 L -0.6480,0.4324 L -0.6956,0.3088 L -0.7116,0.2708 L -0.7224,0.2500 L -0.6998,0.2409 L -0.6722,0.2326 L -0.6378,0.2250 L -0.5948,0.2183 L -0.5398,0.2125 L -0.4674,0.2077 L -0.3670,0.2038 L -0.2187,0.2011 L 0.0000,0.2000 Z"/>
        <g id="arrows14">
          <use xlink:href="#arrow1" transform="translate(0.5083,0.6969) rotate(126.09) scale(2.0)"/>
          <use xlink:href="#arrow1" transform="translate(-0.5083,0.6969) rotate(-124.40) scale(2.0)"/>
        </g>
      </g>
      <g id="fieldline15">
        <path d="M 0.0000,0.2333 L 0.1971,0.2343 L 0.3400,0.2368 L 0.4410,0.2403 L 0.5157,0.2447 L 0.5737,0.2500 L 0.4710,0.3305 L 0.4183,0.3692 L 0.3722,0.4000 L 0.3293,0.4259 L 0.2882,0.4479 L 0.2482,0.4666 L 0.2091,0.4822 L 0.1705,0.4950 L 0.1323,0.5051 L 0.0943,0.5126 L 0.0565,0.5176 L 0.0188,0.5201 L -0.0189,0.5201 L -0.0565,0.5176 L -0.0943,0.5126 L -0.1323,0.5051 L -0.1705,0.4950 L -0.2091,0.4822 L -0.2483,0.4666 L -0.2882,0.4479 L -0.3293,0.4259 L -0.3723,0.4000 L -0.4183,0.3691 L -0.4711,0.3305 L -0.5737,0.2500 L -0.5157,0.2447 L -0.4410,0.2403 L -0.3400,0.2368 L -0.1970,0.2343 L 0.0000,0.2333 Z"/>
        <g id="arrows15">
          <use xlink:href="#arrow1" transform="translate(0.0000,0.5193) rotate(-178.55) scale(2.0)"/>
        </g>
      </g>
    </g>
    <g id="symbols">
      <g id="magnet1" transform="translate(0.0,0.0) rotate(0.0)">
        <defs>
          <linearGradient id="magnetGrad1" x1="0" x2="0" y1="0.25" y2="-0.25" gradientUnits="userSpaceOnUse">
            <stop stop-color="#000000" offset="0" stop-opacity="0.125"/>
            <stop stop-color="#ffffff" offset="0.07" stop-opacity="0.125"/>
            <stop stop-color="#ffffff" offset="0.25" stop-opacity="0.5"/>
            <stop stop-color="#ffffff" offset="0.6" stop-opacity="0.2"/>
            <stop stop-color="#000000" offset="1" stop-opacity="0.33"/>
          </linearGradient>
        </defs>
        <rect x="-0.75" y="-0.25" width="1.5" height="0.5" style="fill:#00cc00; stroke:none"/>
        <rect x="0" y="-0.25" width="0.75" height="0.5" style="fill:#ff0000; stroke:none"/>
        <rect x="-0.75" y="-0.25" width="1.5" height="0.5" style="fill:url(#magnetGrad1); stroke-width:0.04; stroke-linejoin:miter; stroke:#000000"/>
        <text text-anchor="middle" y="-0.25" transform="translate(-0.4875,-0.11) scale(0.0025,-0.0025)" style="fill:#000000; stroke:none; font-size:120px; font-family:Bitstream Vera Sans">S</text>
        <text text-anchor="middle" y="-0.25" transform="translate(0.4875,-0.11) scale(0.0025,-0.0025)" style="fill:#000000; stroke:none; font-size:120px; font-family:Bitstream Vera Sans">N</text>
      </g>
    </g>
  </g>
</svg>
