<?xml version="1.0" encoding="UTF-8" standalone="no"?>
<!DOCTYPE svg PUBLIC "-//W3C//DTD SVG 1.1//EN" "http://www.w3.org/Graphics/SVG/1.1/DTD/svg11.dtd">
<svg width="100%" height="100%" viewBox="0 0 784 204" version="1.1" xmlns="http://www.w3.org/2000/svg" xmlns:xlink="http://www.w3.org/1999/xlink" xml:space="preserve" xmlns:serif="http://www.serif.com/" style="fill-rule:evenodd;clip-rule:evenodd;stroke-miterlimit:1.5;">
    <g id="ArtBoard1" transform="matrix(1,0,0,1,0,-22)">
        <rect x="0" y="22" width="261" height="204" style="fill:none;"/>
        <clipPath id="_clip1">
            <rect x="0" y="22" width="261" height="204"/>
        </clipPath>
        <g clip-path="url(#_clip1)">
            <g transform="matrix(0.984808,0.173648,-0.173648,0.984808,24.3118,-20.8849)">
                <path d="M45,59L51,59L51,73L213,73L213,60L219,60C219,60 245.913,80 247,130C247.978,175 222,198 222,198L214,198L214,185L51,185L51,198L42,198C42,198 16,177 16,130C16,79 45,59 45,59Z" style="fill:rgb(148,148,148);"/>
            </g>
            <g transform="matrix(1,0,0,1,0,22)">
                <path d="M63.83,38.209L198.012,175.597" style="fill:none;stroke:rgb(230,123,25);stroke-width:0.75px;"/>
            </g>
            <g>
                <g transform="matrix(1,0,0,1,-0.955253,-12.8939)">
                    <g transform="matrix(1,-0,-0,1,0.955253,34.8939)">
                        <path d="M86.629,90.314L92.233,84.448L95.492,91.877" style="fill:none;stroke:rgb(230,123,25);stroke-width:2px;stroke-miterlimit:10;"/>
                        <path d="M89.559,99.61C89.559,99.61 91.466,88.793 92.233,84.448" style="fill:none;stroke:rgb(230,123,25);stroke-width:2px;"/>
                    </g>
                </g>
                <g transform="matrix(1,0,0,1,-39.3949,-2.20755)">
                    <g transform="matrix(1,-0,-0,1,39.3949,24.2076)">
                        <path d="M48.189,101L53.793,95.134L57.052,102.563" style="fill:none;stroke:rgb(230,123,25);stroke-width:2px;stroke-miterlimit:10;"/>
                        <path d="M51.119,110.296C51.119,110.296 53.027,99.479 53.793,95.134" style="fill:none;stroke:rgb(230,123,25);stroke-width:2px;"/>
                    </g>
                </g>
                <g transform="matrix(1,0,0,1,-10.8355,2.80989)">
                    <g transform="matrix(1,-0,-0,1,10.8355,19.1901)">
                        <path d="M76.749,106.018L82.352,100.152L85.612,107.58" style="fill:none;stroke:rgb(230,123,25);stroke-width:2px;stroke-miterlimit:10;"/>
                        <path d="M79.679,115.314C79.679,115.314 81.586,104.497 82.352,100.152" style="fill:none;stroke:rgb(230,123,25);stroke-width:2px;"/>
                    </g>
                </g>
                <g transform="matrix(1,0,0,1,-24.6228,0.39717)">
                    <g transform="matrix(1,-0,-0,1,24.6228,21.6028)">
                        <path d="M62.961,103.605L68.565,97.739L71.825,105.168" style="fill:none;stroke:rgb(230,123,25);stroke-width:2px;stroke-miterlimit:10;"/>
                        <path d="M65.892,112.901C65.892,112.901 67.799,102.084 68.565,97.739" style="fill:none;stroke:rgb(230,123,25);stroke-width:2px;"/>
                    </g>
                </g>
                <g transform="matrix(1,0,0,1,2.95183,4.04378)">
                    <g transform="matrix(1,-0,-0,1,-2.95183,17.9562)">
                        <path d="M90.536,107.251L96.14,101.385L99.399,108.814" style="fill:none;stroke:rgb(230,123,25);stroke-width:2px;stroke-miterlimit:10;"/>
                        <path d="M93.466,116.548C93.466,116.548 95.373,105.731 96.14,101.385" style="fill:none;stroke:rgb(230,123,25);stroke-width:2px;"/>
                    </g>
                </g>
                <g transform="matrix(1,0,0,1,-29.2569,-17.8842)">
                    <g transform="matrix(1,-0,-0,1,29.2569,39.8842)">
                        <path d="M58.327,85.323L63.931,79.457L67.19,86.886" style="fill:none;stroke:rgb(230,123,25);stroke-width:2px;stroke-miterlimit:10;"/>
                        <path d="M61.257,94.62C61.257,94.62 63.165,83.803 63.931,79.457" style="fill:none;stroke:rgb(230,123,25);stroke-width:2px;"/>
                    </g>
                </g>
                <g transform="matrix(1,0,0,1,-14.7426,-15.325)">
                    <g transform="matrix(1,-0,-0,1,14.7426,37.325)">
                        <path d="M72.842,87.883L78.445,82.017L81.705,89.446" style="fill:none;stroke:rgb(230,123,25);stroke-width:2px;stroke-miterlimit:10;"/>
                        <path d="M75.772,97.179C75.772,97.179 77.679,86.362 78.445,82.017" style="fill:none;stroke:rgb(230,123,25);stroke-width:2px;"/>
                    </g>
                </g>
            </g>
            <g transform="matrix(0.984808,0.173648,-0.173648,0.984808,24.3118,-20.8849)">
                <g transform="matrix(1,0,0,1,2,0)">
                    <path d="M58.262,185L58.262,73" style="fill:none;stroke:rgb(230,123,25);stroke-width:2px;stroke-linejoin:round;"/>
                </g>
                <g transform="matrix(1,0,0,1,9.73824,0)">
                    <path d="M58.262,185L58.262,73" style="fill:none;stroke:rgb(230,123,25);stroke-width:2px;stroke-linejoin:round;"/>
                </g>
                <g transform="matrix(1,0,0,1,16.7382,0)">
                    <path d="M58.262,185L58.262,73" style="fill:none;stroke:rgb(230,123,25);stroke-width:2px;stroke-linejoin:round;"/>
                </g>
                <g transform="matrix(1,0,0,1,23.7382,0)">
                    <path d="M58.262,185L58.262,73" style="fill:none;stroke:rgb(230,123,25);stroke-width:2px;stroke-linejoin:round;"/>
                </g>
                <g transform="matrix(1,0,0,1,30.7382,0)">
                    <path d="M58.262,185L58.262,73" style="fill:none;stroke:rgb(230,123,25);stroke-width:2px;stroke-linejoin:round;"/>
                </g>
                <g transform="matrix(1,0,0,1,37.7382,-7.10543e-15)">
                    <path d="M58.262,185L58.262,73" style="fill:none;stroke:rgb(230,123,25);stroke-width:2px;stroke-linejoin:round;"/>
                </g>
                <g transform="matrix(1,0,0,1,-5.26176,0)">
                    <path d="M58.262,185L58.262,73" style="fill:none;stroke:rgb(230,123,25);stroke-width:2px;stroke-linejoin:round;"/>
                </g>
                <g transform="matrix(1.05065,-5.55112e-17,5.55112e-17,1.05065,-5.16677,-3.69778)">
                    <path d="M102,73C102,73 113.738,107.125 114,107" style="fill:none;stroke:rgb(230,123,25);stroke-width:1.9px;stroke-linejoin:round;"/>
                </g>
            </g>
            <g transform="matrix(-1,0,0,-1,261.756,257.64)">
                <g transform="matrix(1,0,0,1,-0.955253,-12.8939)">
                    <g transform="matrix(-1,-0,-0,-1,262.711,248.534)">
                        <path d="M175.144,123.234L171.884,115.805L166.28,121.671" style="fill:none;stroke:rgb(230,123,25);stroke-width:2px;stroke-miterlimit:10;"/>
                        <path d="M171.884,115.805C171.118,120.15 169.211,130.967 169.211,130.967" style="fill:none;stroke:rgb(230,123,25);stroke-width:2px;"/>
                    </g>
                </g>
                <g transform="matrix(1,0,0,1,-39.3949,-2.20755)">
                    <g transform="matrix(-1,-0,-0,-1,301.151,237.847)">
                        <path d="M213.583,112.548L210.324,105.119L204.72,110.985" style="fill:none;stroke:rgb(230,123,25);stroke-width:2px;stroke-miterlimit:10;"/>
                        <path d="M210.324,105.119C209.558,109.464 207.65,120.281 207.65,120.281" style="fill:none;stroke:rgb(230,123,25);stroke-width:2px;"/>
                    </g>
                </g>
                <g transform="matrix(1,0,0,1,-10.8355,2.80989)">
                    <g transform="matrix(-1,-0,-0,-1,272.592,232.83)">
                        <path d="M185.024,107.53L181.764,100.101L176.161,105.967" style="fill:none;stroke:rgb(230,123,25);stroke-width:2px;stroke-miterlimit:10;"/>
                        <path d="M181.764,100.101C180.998,104.447 179.091,115.264 179.091,115.264" style="fill:none;stroke:rgb(230,123,25);stroke-width:2px;"/>
                    </g>
                </g>
                <g transform="matrix(1,0,0,1,-24.6228,0.39717)">
                    <g transform="matrix(-1,-0,-0,-1,286.379,235.243)">
                        <path d="M198.811,109.943L195.552,102.514L189.948,108.38" style="fill:none;stroke:rgb(230,123,25);stroke-width:2px;stroke-miterlimit:10;"/>
                        <path d="M195.552,102.514C194.785,106.859 192.878,117.676 192.878,117.676" style="fill:none;stroke:rgb(230,123,25);stroke-width:2px;"/>
                    </g>
                </g>
                <g transform="matrix(1,0,0,1,2.95183,4.04378)">
                    <g transform="matrix(-1,-0,-0,-1,258.804,231.596)">
                        <path d="M171.237,106.296L167.977,98.868L162.373,104.734" style="fill:none;stroke:rgb(230,123,25);stroke-width:2px;stroke-miterlimit:10;"/>
                        <path d="M167.977,98.868C167.211,103.213 165.303,114.03 165.303,114.03" style="fill:none;stroke:rgb(230,123,25);stroke-width:2px;"/>
                    </g>
                </g>
                <g transform="matrix(1,0,0,1,-29.2569,-17.8842)">
                    <g transform="matrix(-1,-0,-0,-1,291.013,253.524)">
                        <path d="M203.445,128.224L200.186,120.796L194.582,126.662" style="fill:none;stroke:rgb(230,123,25);stroke-width:2px;stroke-miterlimit:10;"/>
                        <path d="M200.186,120.796C199.42,125.141 197.512,135.958 197.512,135.958" style="fill:none;stroke:rgb(230,123,25);stroke-width:2px;"/>
                    </g>
                </g>
                <g transform="matrix(1,0,0,1,-14.7426,-15.325)">
                    <g transform="matrix(-1,-0,-0,-1,276.499,250.965)">
                        <path d="M188.931,125.665L185.671,118.236L180.068,124.102" style="fill:none;stroke:rgb(230,123,25);stroke-width:2px;stroke-miterlimit:10;"/>
                        <path d="M185.671,118.236C184.905,122.581 182.998,133.399 182.998,133.399" style="fill:none;stroke:rgb(230,123,25);stroke-width:2px;"/>
                    </g>
                </g>
            </g>
            <g transform="matrix(-0.984808,-0.173648,0.173648,-0.984808,237.444,278.525)">
                <g transform="matrix(1,0,0,1,2,0)">
                    <path d="M58.262,185L58.262,73" style="fill:none;stroke:rgb(230,123,25);stroke-width:2px;stroke-linejoin:round;"/>
                </g>
                <g transform="matrix(1,0,0,1,9.73824,0)">
                    <path d="M58.262,185L58.262,73" style="fill:none;stroke:rgb(230,123,25);stroke-width:2px;stroke-linejoin:round;"/>
                </g>
                <g transform="matrix(1,0,0,1,16.7382,0)">
                    <path d="M58.262,185L58.262,73" style="fill:none;stroke:rgb(230,123,25);stroke-width:2px;stroke-linejoin:round;"/>
                </g>
                <g transform="matrix(1,0,0,1,23.7382,0)">
                    <path d="M58.262,185L58.262,73" style="fill:none;stroke:rgb(230,123,25);stroke-width:2px;stroke-linejoin:round;"/>
                </g>
                <g transform="matrix(1,0,0,1,30.7382,0)">
                    <path d="M58.262,185L58.262,73" style="fill:none;stroke:rgb(230,123,25);stroke-width:2px;stroke-linejoin:round;"/>
                </g>
                <g transform="matrix(1,0,0,1,37.7382,-7.10543e-15)">
                    <path d="M58.262,185L58.262,73" style="fill:none;stroke:rgb(230,123,25);stroke-width:2px;stroke-linejoin:round;"/>
                </g>
                <g transform="matrix(1,0,0,1,-5.26176,0)">
                    <path d="M58.262,185L58.262,73" style="fill:none;stroke:rgb(230,123,25);stroke-width:2px;stroke-linejoin:round;"/>
                </g>
                <g transform="matrix(1.03315,-5.55112e-17,5.55112e-17,1.03315,-3.38093,-2.41969)">
                    <path d="M102,73C102,73 113.738,107.125 114,107" style="fill:none;stroke:rgb(230,123,25);stroke-width:1.94px;stroke-linejoin:round;"/>
                </g>
            </g>
            <g transform="matrix(1,0,0,1,0,22)">
                <path d="M108.658,72.433L114.231,60.114L123.458,69.997" style="fill:none;stroke:rgb(230,123,25);stroke-width:2px;stroke-miterlimit:10;"/>
                <path d="M117.256,78.496L114.231,60.114" style="fill:none;stroke:rgb(230,123,25);stroke-width:2px;"/>
            </g>
            <g transform="matrix(1,0,0,1,31.202,102.092)">
                <g transform="matrix(1,-0,-0,1,-31.202,-80.0921)">
                    <path d="M139.859,152.525L145.433,140.206L154.66,150.089" style="fill:none;stroke:rgb(230,123,25);stroke-width:2px;stroke-miterlimit:10;"/>
                    <path d="M148.458,158.588L145.433,140.206" style="fill:none;stroke:rgb(230,123,25);stroke-width:2px;"/>
                </g>
            </g>
            <g transform="matrix(1.57569,0.277837,-0.277837,1.57569,-40.2658,-108.936)">
                <circle cx="131.5" cy="127.5" r="17.5" style="fill:rgb(235,235,8);"/>
            </g>
            <g transform="matrix(0.984808,0.173648,-0.173648,0.984808,24.3118,-20.8849)">
                <path d="M131.513,100.5L131.513,156.5" style="fill:none;stroke:black;stroke-width:4.47px;stroke-linejoin:round;"/>
            </g>
            <g>
                <g transform="matrix(1,0,0,0.801527,0,19.9466)">
                    <path d="M131.513,100.5L131.513,35" style="fill:none;stroke:rgb(255,0,0);stroke-width:2.21px;stroke-linejoin:round;"/>
                </g>
                <path d="M131.513,156.5L131.513,209" style="fill:none;stroke:rgb(54,0,209);stroke-width:2px;stroke-linejoin:round;"/>
                <g transform="matrix(1.33162,0,0,1,-36.6131,-7)">
                    <path d="M121,224L131.513,224" style="fill:none;stroke:rgb(54,0,209);stroke-width:2.55px;stroke-linejoin:round;"/>
                </g>
                <g transform="matrix(1.33162,0,0,1,-22.6131,-95.5)">
                    <path d="M121,224L131.513,224" style="fill:none;stroke:rgb(54,0,209);stroke-width:2.55px;stroke-linejoin:round;"/>
                </g>
                <g transform="matrix(1,0,0,1,0,13)">
                    <g transform="matrix(1.33162,0,0,1,-36.6131,-203)">
                        <path d="M121,224L131.513,224" style="fill:none;stroke:rgb(255,0,0);stroke-width:2.55px;stroke-linejoin:round;"/>
                    </g>
                    <g transform="matrix(8.15385e-17,-1.33162,1,6.12323e-17,-92.4865,189.127)">
                        <path d="M121,224L131.513,224" style="fill:none;stroke:rgb(255,0,0);stroke-width:2.55px;stroke-linejoin:round;"/>
                    </g>
                </g>
                <g transform="matrix(1,0,0,1,-13.6,107.5)">
                    <g transform="matrix(1.33162,0,0,1,-36.6131,-203)">
                        <path d="M121,224L131.513,224" style="fill:none;stroke:rgb(255,0,0);stroke-width:2.55px;stroke-linejoin:round;"/>
                    </g>
                    <g transform="matrix(8.15385e-17,-1.33162,1,6.12323e-17,-92.4865,189.127)">
                        <path d="M121,224L131.513,224" style="fill:none;stroke:rgb(255,0,0);stroke-width:2.55px;stroke-linejoin:round;"/>
                    </g>
                </g>
            </g>
            <g transform="matrix(0.984808,0.173648,-0.173648,0.984808,12.7487,97.2316)">
                <g transform="matrix(26,0,0,26,9.44408,19.5789)">
                    <path d="M0.074,-0L0.074,-0.716L0.215,-0.716L0.508,-0.238L0.508,-0.716L0.642,-0.716L0.642,-0L0.497,-0L0.208,-0.467L0.208,-0L0.074,-0Z" style="fill:rgb(255,0,0);fill-rule:nonzero;"/>
                </g>
            </g>
            <g transform="matrix(0.984808,0.173648,-0.173648,0.984808,217.181,133.75)">
                <g transform="matrix(26,0,0,26,9.44408,19.5789)">
                    <path d="M0.036,-0.233L0.177,-0.247C0.185,-0.199 0.202,-0.165 0.228,-0.143C0.254,-0.12 0.289,-0.109 0.333,-0.109C0.38,-0.109 0.415,-0.119 0.438,-0.139C0.462,-0.159 0.474,-0.182 0.474,-0.208C0.474,-0.225 0.469,-0.239 0.459,-0.251C0.449,-0.263 0.431,-0.273 0.407,-0.282C0.39,-0.288 0.351,-0.299 0.291,-0.313C0.214,-0.333 0.159,-0.356 0.128,-0.384C0.084,-0.424 0.062,-0.472 0.062,-0.528C0.062,-0.565 0.072,-0.599 0.093,-0.631C0.114,-0.662 0.143,-0.687 0.182,-0.703C0.221,-0.72 0.268,-0.728 0.323,-0.728C0.413,-0.728 0.481,-0.708 0.526,-0.669C0.572,-0.63 0.595,-0.577 0.598,-0.511L0.453,-0.505C0.447,-0.542 0.434,-0.568 0.413,-0.584C0.393,-0.6 0.362,-0.608 0.322,-0.608C0.28,-0.608 0.247,-0.6 0.223,-0.583C0.208,-0.571 0.2,-0.557 0.2,-0.538C0.2,-0.521 0.207,-0.507 0.222,-0.495C0.24,-0.479 0.284,-0.463 0.354,-0.447C0.425,-0.43 0.477,-0.413 0.51,-0.395C0.544,-0.378 0.571,-0.353 0.59,-0.323C0.609,-0.292 0.618,-0.254 0.618,-0.208C0.618,-0.167 0.607,-0.129 0.584,-0.093C0.561,-0.057 0.529,-0.031 0.487,-0.013C0.446,0.004 0.394,0.013 0.332,0.013C0.241,0.013 0.172,-0.008 0.123,-0.05C0.075,-0.092 0.046,-0.153 0.036,-0.233Z" style="fill:rgb(0,223,64);fill-rule:nonzero;"/>
                </g>
            </g>
            <g transform="matrix(1,0,0,1,0,22)">
                <path d="M261,0L261,204" style="fill:none;stroke:black;stroke-width:6px;"/>
            </g>
            <g transform="matrix(1,0,0,1,-0.75,22.9784)">
                <g transform="matrix(22,0,0,22,9.62606,18)">
                    <path d="M0.461,-0L0.461,-0.043C0.369,-0.043 0.326,-0.061 0.326,-0.11L0.326,-0.639L0.26,-0.639L0.038,-0.584L0.038,-0.535C0.07,-0.542 0.125,-0.547 0.145,-0.547C0.17,-0.547 0.178,-0.533 0.178,-0.498L0.178,-0.11C0.178,-0.06 0.138,-0.043 0.044,-0.043L0.044,-0L0.461,-0Z" style="fill-rule:nonzero;"/>
                </g>
                <g transform="matrix(22,0,0,22,20.5161,18)">
                    <path d="M0.333,-0.274C0.333,-0.492 0.229,-0.648 0.053,-0.73L0.028,-0.694C0.148,-0.597 0.201,-0.473 0.201,-0.274C0.201,-0.073 0.145,0.054 0.025,0.15L0.053,0.186C0.229,0.103 0.333,-0.054 0.333,-0.274Z" style="fill-rule:nonzero;"/>
                </g>
            </g>
        </g>
    </g>
    <g id="ArtBoard3" transform="matrix(1,0,0,1,-0.164997,0)">
        <rect x="522.165" y="0" width="261.01" height="204" style="fill:none;"/>
        <g transform="matrix(0.984808,-0.173648,0.173648,0.984808,507.706,2.66933)">
            <path d="M45,59L51,59L51,73L213,73L213,60L219,60C219,60 245.913,80 247,130C247.978,175 222,198 222,198L214,198L214,185L51,185L51,198L42,198C42,198 16,177 16,130C16,79 45,59 45,59Z" style="fill:rgb(148,148,148);"/>
        </g>
        <g transform="matrix(0.939693,-0.34202,0.34202,0.939693,500.297,51.283)">
            <path d="M63.83,38.209L198.012,175.597" style="fill:none;stroke:rgb(230,123,25);stroke-width:0.75px;"/>
        </g>
        <g transform="matrix(0.939693,-0.34202,0.34202,0.939693,492.842,30.7603)">
            <g transform="matrix(1,0,0,1,-0.955253,-12.8939)">
                <g transform="matrix(0.939693,0.34202,-0.34202,0.939693,-451.489,-184.517)">
                    <path d="M612.511,106.764L618.115,112.63L621.374,105.201" style="fill:none;stroke:rgb(230,123,25);stroke-width:2px;stroke-miterlimit:10;"/>
                    <path d="M618.115,112.63C617.348,108.285 615.441,97.468 615.441,97.468" style="fill:none;stroke:rgb(230,123,25);stroke-width:2px;"/>
                </g>
            </g>
            <g transform="matrix(1,0,0,1,-39.3949,-2.20755)">
                <g transform="matrix(0.939693,0.34202,-0.34202,0.939693,-413.049,-195.203)">
                    <path d="M580.044,129.953L585.648,135.819L588.908,128.39" style="fill:none;stroke:rgb(230,123,25);stroke-width:2px;stroke-miterlimit:10;"/>
                    <path d="M585.648,135.819C584.882,131.474 582.975,120.657 582.975,120.657" style="fill:none;stroke:rgb(230,123,25);stroke-width:2px;"/>
                </g>
            </g>
            <g transform="matrix(1,0,0,1,-10.8355,2.80989)">
                <g transform="matrix(0.939693,0.34202,-0.34202,0.939693,-441.608,-200.22)">
                    <path d="M608.597,124.9L614.201,130.766L617.461,123.337" style="fill:none;stroke:rgb(230,123,25);stroke-width:2px;stroke-miterlimit:10;"/>
                    <path d="M614.201,130.766C613.435,126.421 611.528,115.604 611.528,115.604" style="fill:none;stroke:rgb(230,123,25);stroke-width:2px;"/>
                </g>
            </g>
            <g transform="matrix(1,0,0,1,-24.6228,0.39717)">
                <g transform="matrix(0.939693,0.34202,-0.34202,0.939693,-427.821,-197.808)">
                    <path d="M594.816,127.348L600.42,133.214L603.68,125.785" style="fill:none;stroke:rgb(230,123,25);stroke-width:2px;stroke-miterlimit:10;"/>
                    <path d="M600.42,133.214C599.654,128.869 597.747,118.052 597.747,118.052" style="fill:none;stroke:rgb(230,123,25);stroke-width:2px;"/>
                </g>
            </g>
            <g transform="matrix(1,0,0,1,2.95183,4.04378)">
                <g transform="matrix(0.939693,0.34202,-0.34202,0.939693,-455.396,-201.454)">
                    <path d="M621.975,121.344L627.579,127.21L630.839,119.781" style="fill:none;stroke:rgb(230,123,25);stroke-width:2px;stroke-miterlimit:10;"/>
                    <path d="M627.579,127.21C626.813,122.865 624.906,112.048 624.906,112.048" style="fill:none;stroke:rgb(230,123,25);stroke-width:2px;"/>
                </g>
            </g>
            <g transform="matrix(1,0,0,1,-29.2569,-17.8842)">
                <g transform="matrix(0.939693,0.34202,-0.34202,0.939693,-423.187,-179.526)">
                    <path d="M584.209,111.754L589.813,117.62L593.072,110.191" style="fill:none;stroke:rgb(230,123,25);stroke-width:2px;stroke-miterlimit:10;"/>
                    <path d="M589.813,117.62C589.047,113.275 587.139,102.458 587.139,102.458" style="fill:none;stroke:rgb(230,123,25);stroke-width:2px;"/>
                </g>
            </g>
            <g transform="matrix(1,0,0,1,-14.7426,-15.325)">
                <g transform="matrix(0.939693,0.34202,-0.34202,0.939693,-437.701,-182.086)">
                    <path d="M598.723,109.195L604.327,115.061L607.587,107.632" style="fill:none;stroke:rgb(230,123,25);stroke-width:2px;stroke-miterlimit:10;"/>
                    <path d="M604.327,115.061C603.561,110.716 601.654,99.899 601.654,99.899" style="fill:none;stroke:rgb(230,123,25);stroke-width:2px;"/>
                </g>
            </g>
        </g>
        <g transform="matrix(0.984808,-0.173648,0.173648,0.984808,508.544,2.8198)">
            <g transform="matrix(1,0,0,1,2,0)">
                <path d="M58.262,185L58.262,73" style="fill:none;stroke:rgb(230,123,25);stroke-width:2px;stroke-linejoin:round;"/>
            </g>
            <g transform="matrix(1,0,0,1,9.73824,0)">
                <path d="M58.262,185L58.262,73" style="fill:none;stroke:rgb(230,123,25);stroke-width:2px;stroke-linejoin:round;"/>
            </g>
            <g transform="matrix(1,0,0,1,16.7382,0)">
                <path d="M58.262,185L58.262,73" style="fill:none;stroke:rgb(230,123,25);stroke-width:2px;stroke-linejoin:round;"/>
            </g>
            <g transform="matrix(1,0,0,1,23.7382,0)">
                <path d="M58.262,185L58.262,73" style="fill:none;stroke:rgb(230,123,25);stroke-width:2px;stroke-linejoin:round;"/>
            </g>
            <g transform="matrix(1,0,0,1,30.7382,0)">
                <path d="M58.262,185L58.262,73" style="fill:none;stroke:rgb(230,123,25);stroke-width:2px;stroke-linejoin:round;"/>
            </g>
            <g transform="matrix(1,0,0,1,37.7382,-7.10543e-15)">
                <path d="M58.262,185L58.262,73" style="fill:none;stroke:rgb(230,123,25);stroke-width:2px;stroke-linejoin:round;"/>
            </g>
            <g transform="matrix(1,0,0,1,-5.26176,0)">
                <path d="M58.262,185L58.262,73" style="fill:none;stroke:rgb(230,123,25);stroke-width:2px;stroke-linejoin:round;"/>
            </g>
            <g transform="matrix(1.05065,-5.55112e-17,5.55112e-17,1.05065,-5.16677,-3.69778)">
                <path d="M102,73C102,73 113.738,107.125 114,107" style="fill:none;stroke:rgb(230,123,25);stroke-width:1.9px;stroke-linejoin:round;"/>
            </g>
        </g>
        <g transform="matrix(-0.939693,0.34202,-0.34202,-0.939693,826.93,183.337)">
            <g transform="matrix(1,0,0,1,-0.955253,-12.8939)">
                <g transform="matrix(-0.939693,-0.34202,0.34202,-0.939693,715.155,467.944)">
                    <path d="M706.947,107.425L703.687,114.854L698.084,108.988" style="fill:none;stroke:rgb(230,123,25);stroke-width:2px;stroke-miterlimit:10;"/>
                    <path d="M701.014,99.692C701.014,99.692 702.921,110.509 703.687,114.854" style="fill:none;stroke:rgb(230,123,25);stroke-width:2px;"/>
                </g>
            </g>
            <g transform="matrix(1,0,0,1,-39.3949,-2.20755)">
                <g transform="matrix(-0.939693,-0.34202,0.34202,-0.939693,753.595,457.258)">
                    <path d="M739.413,84.236L736.154,91.665L730.55,85.799" style="fill:none;stroke:rgb(230,123,25);stroke-width:2px;stroke-miterlimit:10;"/>
                    <path d="M733.48,76.503C733.48,76.503 735.388,87.32 736.154,91.665" style="fill:none;stroke:rgb(230,123,25);stroke-width:2px;"/>
                </g>
            </g>
            <g transform="matrix(1,0,0,1,-10.8355,2.80989)">
                <g transform="matrix(-0.939693,-0.34202,0.34202,-0.939693,725.036,452.24)">
                    <path d="M710.86,89.289L707.601,96.718L701.997,90.852" style="fill:none;stroke:rgb(230,123,25);stroke-width:2px;stroke-miterlimit:10;"/>
                    <path d="M704.927,81.556C704.927,81.556 706.835,92.373 707.601,96.718" style="fill:none;stroke:rgb(230,123,25);stroke-width:2px;"/>
                </g>
            </g>
            <g transform="matrix(1,0,0,1,-24.6228,0.39717)">
                <g transform="matrix(-0.939693,-0.34202,0.34202,-0.939693,738.823,454.653)">
                    <path d="M724.641,86.841L721.382,94.27L715.778,88.404" style="fill:none;stroke:rgb(230,123,25);stroke-width:2px;stroke-miterlimit:10;"/>
                    <path d="M718.708,79.107C718.708,79.107 720.616,89.924 721.382,94.27" style="fill:none;stroke:rgb(230,123,25);stroke-width:2px;"/>
                </g>
            </g>
            <g transform="matrix(1,0,0,1,2.95183,4.04378)">
                <g transform="matrix(-0.939693,-0.34202,0.34202,-0.939693,711.248,451.007)">
                    <path d="M697.482,92.845L694.223,100.274L688.619,94.408" style="fill:none;stroke:rgb(230,123,25);stroke-width:2px;stroke-miterlimit:10;"/>
                    <path d="M691.549,85.112C691.549,85.112 693.457,95.929 694.223,100.274" style="fill:none;stroke:rgb(230,123,25);stroke-width:2px;"/>
                </g>
            </g>
            <g transform="matrix(1,0,0,1,-29.2569,-17.8842)">
                <g transform="matrix(-0.939693,-0.34202,0.34202,-0.939693,743.457,472.935)">
                    <path d="M735.249,102.435L731.989,109.864L726.385,103.997" style="fill:none;stroke:rgb(230,123,25);stroke-width:2px;stroke-miterlimit:10;"/>
                    <path d="M729.316,94.701C729.316,94.701 731.223,105.518 731.989,109.864" style="fill:none;stroke:rgb(230,123,25);stroke-width:2px;"/>
                </g>
            </g>
            <g transform="matrix(1,0,0,1,-14.7426,-15.325)">
                <g transform="matrix(-0.939693,-0.34202,0.34202,-0.939693,728.943,470.375)">
                    <path d="M720.734,104.994L717.475,112.423L711.871,106.557" style="fill:none;stroke:rgb(230,123,25);stroke-width:2px;stroke-miterlimit:10;"/>
                    <path d="M714.801,97.26C714.801,97.26 716.709,108.078 717.475,112.423" style="fill:none;stroke:rgb(230,123,25);stroke-width:2px;"/>
                </g>
            </g>
        </g>
        <g transform="matrix(-0.984808,0.173648,-0.173648,-0.984808,811.227,211.277)">
            <g transform="matrix(1,0,0,1,2,0)">
                <path d="M58.262,185L58.262,73" style="fill:none;stroke:rgb(230,123,25);stroke-width:2px;stroke-linejoin:round;"/>
            </g>
            <g transform="matrix(1,0,0,1,9.73824,0)">
                <path d="M58.262,185L58.262,73" style="fill:none;stroke:rgb(230,123,25);stroke-width:2px;stroke-linejoin:round;"/>
            </g>
            <g transform="matrix(1,0,0,1,16.7382,0)">
                <path d="M58.262,185L58.262,73" style="fill:none;stroke:rgb(230,123,25);stroke-width:2px;stroke-linejoin:round;"/>
            </g>
            <g transform="matrix(1,0,0,1,23.7382,0)">
                <path d="M58.262,185L58.262,73" style="fill:none;stroke:rgb(230,123,25);stroke-width:2px;stroke-linejoin:round;"/>
            </g>
            <g transform="matrix(1,0,0,1,30.7382,0)">
                <path d="M58.262,185L58.262,73" style="fill:none;stroke:rgb(230,123,25);stroke-width:2px;stroke-linejoin:round;"/>
            </g>
            <g transform="matrix(1,0,0,1,37.7382,-7.10543e-15)">
                <path d="M58.262,185L58.262,73" style="fill:none;stroke:rgb(230,123,25);stroke-width:2px;stroke-linejoin:round;"/>
            </g>
            <g transform="matrix(1,0,0,1,-5.26176,0)">
                <path d="M58.262,185L58.262,73" style="fill:none;stroke:rgb(230,123,25);stroke-width:2px;stroke-linejoin:round;"/>
            </g>
            <g transform="matrix(1.19636,-9.29565e-17,9.29565e-17,1.19636,-20.0292,-14.3346)">
                <path d="M102,73C102,73 113.738,107.125 114,107" style="fill:none;stroke:rgb(230,123,25);stroke-width:1.67px;stroke-linejoin:round;"/>
            </g>
        </g>
        <g transform="matrix(0.939693,-0.34202,0.34202,0.939693,497.162,44.7179)">
            <g transform="matrix(0.939693,0.34202,-0.34202,0.939693,-451.73,-212.004)">
                <path d="M619.21,68.302L631.239,74.476L632.312,60.998" style="fill:none;stroke:rgb(230,123,25);stroke-width:2px;stroke-miterlimit:10;"/>
                <path d="M631.239,74.476C629.042,70.536 623.483,60.562 623.483,60.562" style="fill:none;stroke:rgb(230,123,25);stroke-width:2px;"/>
            </g>
        </g>
        <g transform="matrix(0.939693,-0.34202,0.34202,0.939693,557.079,116.024)">
            <g transform="matrix(0.939693,0.34202,-0.34202,0.939693,-483.646,-299.503)">
                <path d="M681.012,141.98L693.063,148.111L694.087,134.629" style="fill:none;stroke:rgb(230,123,25);stroke-width:2px;stroke-miterlimit:10;"/>
                <path d="M693.063,148.111C690.617,143.759 683.933,131.872 683.933,131.872" style="fill:none;stroke:rgb(230,123,25);stroke-width:2px;"/>
            </g>
        </g>
        <g transform="matrix(1.57569,-0.277837,0.277837,1.57569,409.557,-57.9852)">
            <circle cx="131.5" cy="127.5" r="17.5" style="fill:rgb(235,235,8);"/>
        </g>
        <g transform="matrix(0.984808,-0.173648,0.173648,0.984808,500.355,2.66933)">
            <path d="M131.513,100.5L131.513,156.5" style="fill:none;stroke:black;stroke-width:4.47px;stroke-linejoin:round;"/>
        </g>
        <g transform="matrix(1,0,0,1,520.814,-22)">
            <g transform="matrix(1,0,0,0.801527,0,19.9466)">
                <path d="M131.513,100.5L131.513,35" style="fill:none;stroke:rgb(255,0,0);stroke-width:2.21px;stroke-linejoin:round;"/>
            </g>
            <path d="M131.513,156.5L131.513,209" style="fill:none;stroke:rgb(54,0,209);stroke-width:2px;stroke-linejoin:round;"/>
            <g transform="matrix(1.33162,0,0,1,-36.6131,-7)">
                <path d="M121,224L131.513,224" style="fill:none;stroke:rgb(54,0,209);stroke-width:2.55px;stroke-linejoin:round;"/>
            </g>
            <g transform="matrix(1.33162,0,0,1,-49.4131,-95.62)">
                <path d="M121,224L131.513,224" style="fill:none;stroke:rgb(54,0,209);stroke-width:2.55px;stroke-linejoin:round;"/>
            </g>
            <g transform="matrix(1,0,0,1,0,13)">
                <g transform="matrix(1.33162,0,0,1,-36.6131,-203)">
                    <path d="M121,224L131.513,224" style="fill:none;stroke:rgb(255,0,0);stroke-width:2.55px;stroke-linejoin:round;"/>
                </g>
                <g transform="matrix(8.15385e-17,-1.33162,1,6.12323e-17,-92.4865,189.127)">
                    <path d="M121,224L131.513,224" style="fill:none;stroke:rgb(255,0,0);stroke-width:2.55px;stroke-linejoin:round;"/>
                </g>
            </g>
            <g transform="matrix(1,0,0,1,14,107.38)">
                <g transform="matrix(1.33162,0,0,1,-36.6131,-203)">
                    <path d="M121,224L131.513,224" style="fill:none;stroke:rgb(255,0,0);stroke-width:2.55px;stroke-linejoin:round;"/>
                </g>
                <g transform="matrix(8.15385e-17,-1.33162,1,6.12323e-17,-92.4865,189.127)">
                    <path d="M121,224L131.513,224" style="fill:none;stroke:rgb(255,0,0);stroke-width:2.55px;stroke-linejoin:round;"/>
                </g>
            </g>
        </g>
        <g transform="matrix(0.984808,-0.173648,0.173648,0.984808,537.555,118.915)">
            <g transform="matrix(26,0,0,26,9.44408,19.5789)">
                <path d="M0.036,-0.233L0.177,-0.247C0.185,-0.199 0.202,-0.165 0.228,-0.143C0.254,-0.12 0.289,-0.109 0.333,-0.109C0.38,-0.109 0.415,-0.119 0.438,-0.139C0.462,-0.159 0.474,-0.182 0.474,-0.208C0.474,-0.225 0.469,-0.239 0.459,-0.251C0.449,-0.263 0.431,-0.273 0.407,-0.282C0.39,-0.288 0.351,-0.299 0.291,-0.313C0.214,-0.333 0.159,-0.356 0.128,-0.384C0.084,-0.424 0.062,-0.472 0.062,-0.528C0.062,-0.565 0.072,-0.599 0.093,-0.631C0.114,-0.662 0.143,-0.687 0.182,-0.703C0.221,-0.72 0.268,-0.728 0.323,-0.728C0.413,-0.728 0.481,-0.708 0.526,-0.669C0.572,-0.63 0.595,-0.577 0.598,-0.511L0.453,-0.505C0.447,-0.542 0.434,-0.568 0.413,-0.584C0.393,-0.6 0.362,-0.608 0.322,-0.608C0.28,-0.608 0.247,-0.6 0.223,-0.583C0.208,-0.571 0.2,-0.557 0.2,-0.538C0.2,-0.521 0.207,-0.507 0.222,-0.495C0.24,-0.479 0.284,-0.463 0.354,-0.447C0.425,-0.43 0.477,-0.413 0.51,-0.395C0.544,-0.378 0.571,-0.353 0.59,-0.323C0.609,-0.292 0.618,-0.254 0.618,-0.208C0.618,-0.167 0.607,-0.129 0.584,-0.093C0.561,-0.057 0.529,-0.031 0.487,-0.013C0.446,0.004 0.394,0.013 0.332,0.013C0.241,0.013 0.172,-0.008 0.123,-0.05C0.075,-0.092 0.046,-0.153 0.036,-0.233Z" style="fill:rgb(0,223,64);fill-rule:nonzero;"/>
            </g>
        </g>
        <g transform="matrix(0.984808,-0.173648,0.173648,0.984808,734.482,82.013)">
            <g transform="matrix(26,0,0,26,9.44408,19.5789)">
                <path d="M0.074,-0L0.074,-0.716L0.215,-0.716L0.508,-0.238L0.508,-0.716L0.642,-0.716L0.642,-0L0.497,-0L0.208,-0.467L0.208,-0L0.074,-0Z" style="fill:rgb(255,0,0);fill-rule:nonzero;"/>
            </g>
        </g>
        <g transform="matrix(1,0,0,1,521.415,0.978374)">
            <g transform="matrix(22,0,0,22,9.62606,18)">
                <path d="M0.068,-0.498C0.1,-0.544 0.135,-0.568 0.192,-0.568C0.246,-0.568 0.28,-0.538 0.28,-0.488C0.28,-0.418 0.222,-0.371 0.16,-0.371L0.138,-0.371L0.138,-0.308L0.157,-0.308C0.264,-0.308 0.316,-0.257 0.316,-0.17C0.316,-0.072 0.281,-0.04 0.233,-0.04C0.178,-0.04 0.144,-0.111 0.09,-0.111C0.054,-0.111 0.036,-0.083 0.036,-0.051C0.036,-0.009 0.067,0.015 0.163,0.015C0.325,0.015 0.458,-0.051 0.458,-0.188C0.458,-0.268 0.403,-0.328 0.297,-0.364L0.297,-0.372C0.372,-0.403 0.421,-0.434 0.421,-0.513C0.421,-0.593 0.351,-0.653 0.236,-0.653C0.144,-0.653 0.075,-0.605 0.033,-0.518L0.068,-0.498Z" style="fill-rule:nonzero;"/>
            </g>
            <g transform="matrix(22,0,0,22,20.5161,18)">
                <path d="M0.333,-0.274C0.333,-0.492 0.229,-0.648 0.053,-0.73L0.028,-0.694C0.148,-0.597 0.201,-0.473 0.201,-0.274C0.201,-0.073 0.145,0.054 0.025,0.15L0.053,0.186C0.229,0.103 0.333,-0.054 0.333,-0.274Z" style="fill-rule:nonzero;"/>
            </g>
        </g>
    </g>
    <g id="ArtBoard2" transform="matrix(1,0,0,1,261.165,0)">
        <rect x="0" y="0" width="261" height="204" style="fill:none;"/>
        <clipPath id="_clip2">
            <rect x="0" y="0" width="261" height="204"/>
        </clipPath>
        <g clip-path="url(#_clip2)">
            <g transform="matrix(1,0,0,1,-1.01348,-20.0662)">
                <path d="M45,59L51,59L51,73L213,73L213,60L219,60C219,60 245.913,80 247,130C247.978,175 222,198 222,198L214,198L214,185L51,185L51,198L42,198C42,198 16,177 16,130C16,79 45,59 45,59Z" style="fill:rgb(148,148,148);"/>
            </g>
            <g transform="matrix(0.984808,-0.173648,0.173648,0.984808,-17.509,26.3888)">
                <path d="M63.83,38.209L198.012,175.597" style="fill:none;stroke:rgb(230,123,25);stroke-width:0.75px;"/>
            </g>
            <g transform="matrix(1,0,0,1,-1.01348,-20.0662)">
                <g transform="matrix(1,0,0,1,2,0)">
                    <path d="M58.262,185L58.262,73" style="fill:none;stroke:rgb(230,123,25);stroke-width:2px;stroke-linejoin:round;"/>
                </g>
                <g transform="matrix(1,0,0,1,9.73824,0)">
                    <path d="M58.262,185L58.262,73" style="fill:none;stroke:rgb(230,123,25);stroke-width:2px;stroke-linejoin:round;"/>
                </g>
                <g transform="matrix(1,0,0,1,16.7382,0)">
                    <path d="M58.262,185L58.262,73" style="fill:none;stroke:rgb(230,123,25);stroke-width:2px;stroke-linejoin:round;"/>
                </g>
                <g transform="matrix(1,0,0,1,23.7382,0)">
                    <path d="M58.262,185L58.262,73" style="fill:none;stroke:rgb(230,123,25);stroke-width:2px;stroke-linejoin:round;"/>
                </g>
                <g transform="matrix(1,0,0,1,30.7382,0)">
                    <path d="M58.262,185L58.262,73" style="fill:none;stroke:rgb(230,123,25);stroke-width:2px;stroke-linejoin:round;"/>
                </g>
                <g transform="matrix(1,0,0,1,37.7382,-7.10543e-15)">
                    <path d="M58.262,185L58.262,73" style="fill:none;stroke:rgb(230,123,25);stroke-width:2px;stroke-linejoin:round;"/>
                </g>
                <g transform="matrix(1,0,0,1,-5.26176,0)">
                    <path d="M58.262,185L58.262,73" style="fill:none;stroke:rgb(230,123,25);stroke-width:2px;stroke-linejoin:round;"/>
                </g>
                <g transform="matrix(1.05065,-5.55112e-17,5.55112e-17,1.05065,-5.16677,-3.69778)">
                    <path d="M102,73C102,73 113.738,107.125 114,107" style="fill:none;stroke:rgb(230,123,25);stroke-width:1.9px;stroke-linejoin:round;"/>
                </g>
            </g>
            <g transform="matrix(-1,0,0,-1,260.873,237.785)">
                <g transform="matrix(1,0,0,1,2,0)">
                    <path d="M58.262,185L58.262,73" style="fill:none;stroke:rgb(230,123,25);stroke-width:2px;stroke-linejoin:round;"/>
                </g>
                <g transform="matrix(1,0,0,1,9.73824,0)">
                    <path d="M58.262,185L58.262,73" style="fill:none;stroke:rgb(230,123,25);stroke-width:2px;stroke-linejoin:round;"/>
                </g>
                <g transform="matrix(1,0,0,1,16.7382,0)">
                    <path d="M58.262,185L58.262,73" style="fill:none;stroke:rgb(230,123,25);stroke-width:2px;stroke-linejoin:round;"/>
                </g>
                <g transform="matrix(1,0,0,1,23.7382,0)">
                    <path d="M58.262,185L58.262,73" style="fill:none;stroke:rgb(230,123,25);stroke-width:2px;stroke-linejoin:round;"/>
                </g>
                <g transform="matrix(1,0,0,1,30.7382,0)">
                    <path d="M58.262,185L58.262,73" style="fill:none;stroke:rgb(230,123,25);stroke-width:2px;stroke-linejoin:round;"/>
                </g>
                <g transform="matrix(1,0,0,1,37.7382,-7.10543e-15)">
                    <path d="M58.262,185L58.262,73" style="fill:none;stroke:rgb(230,123,25);stroke-width:2px;stroke-linejoin:round;"/>
                </g>
                <g transform="matrix(1,0,0,1,-5.26176,0)">
                    <path d="M58.262,185L58.262,73" style="fill:none;stroke:rgb(230,123,25);stroke-width:2px;stroke-linejoin:round;"/>
                </g>
                <g transform="matrix(1.03315,-5.55112e-17,5.55112e-17,1.03315,-3.38093,-2.41969)">
                    <path d="M102,73C102,73 113.738,107.125 114,107" style="fill:none;stroke:rgb(230,123,25);stroke-width:1.94px;stroke-linejoin:round;"/>
                </g>
            </g>
            <g transform="matrix(1.6,-5.55112e-17,5.55112e-17,1.6,-79.9,-95.5662)">
                <circle cx="131.5" cy="127.5" r="17.5" style="fill:rgb(235,235,8);"/>
            </g>
            <g transform="matrix(1,0,0,1,-1.01348,-20.0662)">
                <path d="M131.513,100.5L131.513,156.5" style="fill:none;stroke:black;stroke-width:4.47px;stroke-linejoin:round;"/>
            </g>
            <g transform="matrix(1,0,0,1,-0.947322,-20)">
                <g transform="matrix(1,0,0,0.801527,0,19.9466)">
                    <path d="M131.513,100.5L131.513,35" style="fill:none;stroke:rgb(255,0,0);stroke-width:2.21px;stroke-linejoin:round;"/>
                </g>
                <path d="M131.513,156.5L131.513,209" style="fill:none;stroke:rgb(54,0,209);stroke-width:2px;stroke-linejoin:round;"/>
                <g transform="matrix(1.33162,0,0,1,-36.6131,-7)">
                    <path d="M121,224L131.513,224" style="fill:none;stroke:rgb(54,0,209);stroke-width:2.55px;stroke-linejoin:round;"/>
                </g>
                <g transform="matrix(1,0,0,1,0,13)">
                    <g transform="matrix(1.33162,0,0,1,-36.6131,-203)">
                        <path d="M121,224L131.513,224" style="fill:none;stroke:rgb(255,0,0);stroke-width:2.55px;stroke-linejoin:round;"/>
                    </g>
                    <g transform="matrix(8.15385e-17,-1.33162,1,6.12323e-17,-92.4865,189.127)">
                        <path d="M121,224L131.513,224" style="fill:none;stroke:rgb(255,0,0);stroke-width:2.55px;stroke-linejoin:round;"/>
                    </g>
                </g>
            </g>
            <path d="M261,0L261,204" style="fill:none;stroke:black;stroke-width:6px;"/>
            <g transform="matrix(1,0,0,1,-0.75,0.978374)">
                <g transform="matrix(22,0,0,22,9.62606,18)">
                    <path d="M0.463,-0.2L0.42,-0.2C0.397,-0.14 0.384,-0.118 0.331,-0.118L0.216,-0.118L0.153,-0.111L0.153,-0.119L0.269,-0.215C0.389,-0.314 0.448,-0.382 0.448,-0.48C0.448,-0.581 0.365,-0.649 0.25,-0.649C0.142,-0.649 0.063,-0.595 0.027,-0.497L0.071,-0.481C0.105,-0.551 0.145,-0.568 0.201,-0.568C0.268,-0.568 0.295,-0.527 0.295,-0.465C0.295,-0.356 0.249,-0.293 0.157,-0.199L0.027,-0.067L0.027,-0L0.431,-0L0.463,-0.2Z" style="fill-rule:nonzero;"/>
                </g>
                <g transform="matrix(22,0,0,22,20.5161,18)">
                    <path d="M0.333,-0.274C0.333,-0.492 0.229,-0.648 0.053,-0.73L0.028,-0.694C0.148,-0.597 0.201,-0.473 0.201,-0.274C0.201,-0.073 0.145,0.054 0.025,0.15L0.053,0.186C0.229,0.103 0.333,-0.054 0.333,-0.274Z" style="fill-rule:nonzero;"/>
                </g>
            </g>
        </g>
    </g>
</svg>
